<?xml version="1.0" encoding="utf-8"?>
<!-- Generator: Adobe Illustrator 17.0.0, SVG Export Plug-In . SVG Version: 6.00 Build 0)  -->
<!DOCTYPE svg PUBLIC "-//W3C//DTD SVG 1.1//EN" "http://www.w3.org/Graphics/SVG/1.1/DTD/svg11.dtd">
<svg version="1.1" id="Layer_1" xmlns="http://www.w3.org/2000/svg" xmlns:xlink="http://www.w3.org/1999/xlink" x="0px" y="0px"
	 width="64px" height="64px" viewBox="0 0 64 64" enable-background="new 0 0 64 64" xml:space="preserve">
<path fill="#FFFFFF" d="M6.652,63.322c-1.529,0-3.057-0.583-4.224-1.75c-2.334-2.334-2.334-6.114,0-8.448L53.124,2.428
	c2.334-2.334,6.114-2.334,8.448,0c2.334,2.334,2.334,6.114,0,8.448L10.876,61.572C9.71,62.739,8.181,63.322,6.652,63.322z"/>
<path fill="#FFFFFF" d="M57.348,63.322c-1.529,0-3.057-0.583-4.224-1.75L2.428,10.876c-2.334-2.334-2.334-6.114,0-8.448
	s6.114-2.334,8.448,0l50.695,50.695c2.334,2.334,2.334,6.114,0,8.448C60.405,62.739,58.876,63.322,57.348,63.322z"/>
</svg>
