<?xml version="1.0" encoding="utf-8"?>
<!-- Generator: Adobe Illustrator 17.0.0, SVG Export Plug-In . SVG Version: 6.00 Build 0)  -->
<!DOCTYPE svg PUBLIC "-//W3C//DTD SVG 1.1//EN" "http://www.w3.org/Graphics/SVG/1.1/DTD/svg11.dtd">
<svg version="1.1" id="Layer_1" xmlns="http://www.w3.org/2000/svg" xmlns:xlink="http://www.w3.org/1999/xlink" x="0px" y="0px"
	 width="80px" height="80px" viewBox="0 0 80 80" enable-background="new 0 0 80 80" xml:space="preserve">
<g>
	<path fill="#5CC3AD" d="M35.884,40.613v-0.032c0-0.22,0.031-0.408,0-0.629c0,0,0-0.031,0-0.063
		c-0.126-1.006-0.691-1.728-1.854-1.728c-1.979,0-3.896,0-5.876,0c-2.325,0-4.619,0-6.944,0c-0.943,0-1.603,0.66-1.634,1.603
		c-0.063,1.068-0.063,2.168,0,3.236c0.063,0.974,0.691,1.634,1.665,1.634c1.571,0,2.954,0,4.556,0c0.817,0,1.603,0,2.482,0h0.031
		v3.519c0,5.656-3.739,8.641-8.39,8.641c-4.65,0-8.389-2.953-8.389-8.641V31.94c0-5.625,3.739-8.61,8.389-8.61
		c3.425,0,6.379,1.728,7.699,4.807c0.188,0.471,0.377,1.005,0.471,1.54c0.503,2.796,1.508,2.608,2.357,2.608
		c0.817,0,3.833,0,3.833,0c0.88,0,1.571-0.723,1.571-1.634c0-0.754-0.063-1.508-0.126-1.979c-0.094-0.817-0.283-1.603-0.503-2.325
		c0-0.063-0.031-0.094-0.031-0.126V26.19c-0.031-0.094-0.094-0.22-0.126-0.346c-2.2-5.876-8.138-9.332-15.114-9.332
		c-8.924,0-16.088,5.53-16.088,14.517v17.879c0,9.049,7.164,14.611,16.088,14.611c8.861,0,16.025-5.562,16.025-14.611h-0.094V40.613
		z"/>
	<path fill="#5CC3AD" d="M60.11,16.481c-8.924,0-16.088,5.562-16.088,14.548v17.879c0,9.049,7.164,14.611,16.088,14.611
		c8.861,0,16.025-5.562,16.025-14.611V31.029C76.135,22.043,68.971,16.481,60.11,16.481z M68.5,48.091
		c0,5.687-3.739,8.672-8.389,8.672c-4.651,0-8.39-2.985-8.39-8.672V31.877c0-5.625,3.739-8.61,8.39-8.61
		c4.65,0,8.389,2.954,8.389,8.61V48.091z"/>
</g>
</svg>
