<?xml version="1.0" encoding="utf-8"?>
<!-- Generator: Adobe Illustrator 17.0.0, SVG Export Plug-In . SVG Version: 6.00 Build 0)  -->
<!DOCTYPE svg PUBLIC "-//W3C//DTD SVG 1.1//EN" "http://www.w3.org/Graphics/SVG/1.1/DTD/svg11.dtd">
<svg version="1.1" id="Layer_1" xmlns="http://www.w3.org/2000/svg" xmlns:xlink="http://www.w3.org/1999/xlink" x="0px" y="0px"
	 width="80px" height="32.213px" viewBox="0 0 80 32.213" enable-background="new 0 0 80 32.213" xml:space="preserve">
<path fill="#FFFFFF" d="M76.464,13.427l-2.312-2.256l2.077-2.078c0.944-0.944,1.465-2.2,1.465-3.536
	c0-1.335-0.521-2.591-1.465-3.536c-0.943-0.944-2.199-1.464-3.535-1.464c-1.337,0-2.593,0.52-3.535,1.464
	c-0.944,0.944-1.465,2.2-1.465,3.536s0.521,2.591,1.474,3.544l2.139,2.087l-1.631,1.631c-0.937-0.331-1.939-0.521-2.988-0.521
	c-4.963,0-9,4.038-9,9c0,0.021,0.011,0.039,0.012,0.059c0.013,1.027,0.162,2.032,0.446,2.99l-2.158,2.158
	c-0.944,0.944-2.2,1.465-3.535,1.465c-1.336,0-2.592-0.521-3.536-1.465c-0.134-0.134-0.24-0.287-0.356-0.433l7.434-7.573
	c0.003-0.003,0.004-0.008,0.008-0.012c0.934-0.943,1.45-2.19,1.45-3.518c0-1.335-0.521-2.59-1.465-3.536
	c-0.944-0.944-2.199-1.464-3.535-1.464c-1.87,0-3.628,0.728-4.95,2.05c-1.322,1.322-2.05,3.08-2.05,4.95v6
	c0,0.986,0.208,1.939,0.593,2.815l-1.56,1.599c-0.756,0.756-2.074,0.756-2.828,0c-0.378-0.378-0.586-0.88-0.586-1.414v-20h1
	c0.801,0,1.555-0.312,2.121-0.878s0.879-1.32,0.879-2.122s-0.312-1.555-0.879-2.121c-1.134-1.135-3.111-1.132-4.243,0
	c-0.566,0.566-0.878,1.32-0.878,2.121v1h-25c-0.552,0-1,0.448-1,1s0.448,1,1,1h23.623l-5.805,5.935
	c-1.256-1.195-2.951-1.935-4.818-1.935c-3.86,0-7,3.14-7,7v6c0,0.544,0.069,1.071,0.187,1.58l-2.773,2.834
	c-0.757,0.756-2.074,0.755-2.829,0c-0.377-0.378-0.585-0.88-0.585-1.414v-10c0-1.603-0.624-3.109-1.758-4.243
	c-1.133-1.133-2.64-1.757-4.242-1.757c-1.603,0-3.109,0.624-4.243,1.757l-1.757,1.757v-2.515c0-0.552-0.448-1-1-1s-1,0.448-1,1v18
	c0,0.553,0.448,1,1,1s1-0.447,1-1V16.314l3.171-3.171c1.511-1.511,4.146-1.511,5.657,0c0.756,0.756,1.172,1.76,1.172,2.829v10
	c0,1.068,0.416,2.073,1.171,2.828c0.755,0.756,1.76,1.172,2.829,1.172s2.073-0.416,2.836-1.18l2.172-2.22
	c1.226,2.033,3.45,3.4,5.992,3.4c3.86,0,7-3.141,7-7v-6c0-1.267-0.344-2.454-0.935-3.48l5.935-6.067v18.548
	c0,1.068,0.416,2.073,1.171,2.828c0.755,0.756,1.76,1.172,2.829,1.172c1.068,0,2.072-0.416,2.837-1.181l1.235-1.266
	c0.116,0.135,0.232,0.269,0.359,0.396c1.322,1.322,3.08,2.051,4.95,2.051c1.869,0,3.627-0.729,4.949-2.051l1.563-1.563
	c0.508,0.959,1.162,1.846,1.951,2.635c2.077,2.077,4.84,3.222,7.778,3.222s5.701-1.145,7.778-3.222s3.222-4.84,3.222-7.778
	C79.694,18.276,78.55,15.514,76.464,13.427z M41.071,2.971c0-0.267,0.104-0.518,0.293-0.708c0.377-0.376,1.035-0.378,1.414,0.001
	c0.189,0.188,0.293,0.439,0.293,0.707s-0.104,0.518-0.293,0.707s-0.44,0.293-0.707,0.293h-1V2.971z M27.071,11.971
	c1.323,0,2.52,0.526,3.415,1.368l-2.001,2.046c-0.756,0.755-2.073,0.756-2.829,0c-0.377-0.377-0.585-0.879-0.585-1.414
	C25.071,12.868,25.968,11.971,27.071,11.971z M32.071,16.971v6c0,2.757-2.243,5-5,5s-5-2.243-5-5v-6
	c0-1.117,0.381-2.139,1.003-2.972c0.007,1.059,0.42,2.053,1.169,2.8c0.755,0.756,1.76,1.172,2.829,1.172s2.073-0.416,2.836-1.18
	l1.755-1.794C31.924,15.604,32.071,16.27,32.071,16.971z M48.916,13.435c0.944-0.944,2.2-1.464,3.536-1.464
	c0.801,0,1.555,0.312,2.121,0.878c0.566,0.567,0.879,1.321,0.879,2.122s-0.312,1.554-0.879,2.122
	c-0.001,0.001-0.001,0.002-0.002,0.003s-0.003,0.002-0.005,0.003l-6.95,7.081c-0.097-0.392-0.164-0.794-0.164-1.208v-6
	C47.452,15.635,47.972,14.38,48.916,13.435z M70.573,7.678c-0.566-0.566-0.879-1.319-0.879-2.121s0.312-1.555,0.88-2.122
	c0.565-0.566,1.318-0.878,2.12-0.878s1.555,0.312,2.121,0.878c0.566,0.567,0.879,1.32,0.879,2.122s-0.312,1.555-0.879,2.121
	L72.72,9.773L70.573,7.678z M59.694,21.213c0-0.004-0.002-0.007-0.002-0.01c0.052-3.816,3.168-6.905,6.995-6.905
	c0.47,0,0.928,0.048,1.372,0.137l-8.247,8.246C59.734,22.201,59.694,21.71,59.694,21.213z M75.059,27.578
	c-1.7,1.699-3.96,2.636-6.364,2.636s-4.664-0.937-6.364-2.636c-0.797-0.797-1.426-1.717-1.869-2.717l9.658-9.657
	c2.127,1.202,3.569,3.482,3.569,6.095c0,0.553,0.447,1,1,1s1-0.447,1-1c0-3.162-1.642-5.943-4.115-7.548l1.165-1.165l2.321,2.265
	c1.699,1.7,2.636,3.96,2.636,6.364C77.694,23.618,76.758,25.877,75.059,27.578z"/>
</svg>
