<?xml version="1.0" encoding="utf-8"?>
<!-- Generator: Adobe Illustrator 17.0.0, SVG Export Plug-In . SVG Version: 6.00 Build 0)  -->
<!DOCTYPE svg PUBLIC "-//W3C//DTD SVG 1.1//EN" "http://www.w3.org/Graphics/SVG/1.1/DTD/svg11.dtd">
<svg version="1.1" id="Layer_1" xmlns="http://www.w3.org/2000/svg" xmlns:xlink="http://www.w3.org/1999/xlink" x="0px" y="0px"
	 width="64px" height="64px" viewBox="0 0 64 64" enable-background="new 0 0 64 64" xml:space="preserve">
<g>
	<g>
		<path fill="#FFFFFF" d="M32,44c5.514,0,10-4.486,10-10V18c0-5.514-4.486-10-10-10s-10,4.486-10,10v16C22,39.514,26.486,44,32,44z
			 M32,40c-3.309,0-6-2.691-6-6v-2h12v2C38,37.309,35.309,40,32,40z M32,12c3.309,0,6,2.691,6,6v1h-6c-0.553,0-1,0.447-1,1
			s0.447,1,1,1h6v2h-6c-0.553,0-1,0.447-1,1s0.447,1,1,1h6v3H26V18C26,14.691,28.691,12,32,12z"/>
		<path fill="#FFFFFF" d="M50,34c0-1.104-0.896-2-2-2s-2,0.896-2,2c0,7.72-6.28,14-14,14s-14-6.28-14-14c0-1.104-0.896-2-2-2
			s-2,0.896-2,2c0,9.248,7.014,16.883,16,17.882V64c0,1.104,0.896,2,2,2s2-0.896,2-2V51.882C42.986,50.883,50,43.248,50,34z"/>
		<path fill="#FFFFFF" d="M28.6,21c0.24,0,0.5-0.101,0.7-0.301c0.18-0.18,0.3-0.439,0.3-0.699c0-0.261-0.12-0.521-0.3-0.721
			c-0.38-0.359-1.021-0.359-1.42,0.021c-0.181,0.18-0.28,0.439-0.28,0.7c0,0.26,0.1,0.52,0.3,0.72C28.08,20.899,28.34,21,28.6,21z"
			/>
	</g>
</g>
</svg>
